<?xml version="1.0" encoding="UTF-8" standalone="no"?>
<!-- Created with Inkscape (http://www.inkscape.org/) -->

<svg
   width="60.033546mm"
   height="31.682266mm"
   viewBox="0 0 60.033546 31.682266"
   version="1.1"
   id="svg1"
   inkscape:version="1.3.1 (9b9bdc1480, 2023-11-25, custom)"
   sodipodi:docname="logo.svg"
   xmlns:inkscape="http://www.inkscape.org/namespaces/inkscape"
   xmlns:sodipodi="http://sodipodi.sourceforge.net/DTD/sodipodi-0.dtd"
   xmlns="http://www.w3.org/2000/svg"
   xmlns:svg="http://www.w3.org/2000/svg">
  <sodipodi:namedview
     id="namedview1"
     pagecolor="#ffffff"
     bordercolor="#000000"
     borderopacity="0.25"
     inkscape:showpageshadow="2"
     inkscape:pageopacity="0.0"
     inkscape:pagecheckerboard="0"
     inkscape:deskcolor="#d1d1d1"
     inkscape:document-units="mm"
     inkscape:zoom="1.4449635"
     inkscape:cx="72.320165"
     inkscape:cy="50.174277"
     inkscape:window-width="1850"
     inkscape:window-height="1011"
     inkscape:window-x="0"
     inkscape:window-y="0"
     inkscape:window-maximized="1"
     inkscape:current-layer="layer1" />
  <defs
     id="defs1">
    <rect
       x="65.719467"
       y="362.32492"
       width="454.37805"
       height="214.9015"
       id="rect17" />
    <rect
       x="42.635456"
       y="428.40756"
       width="538.70081"
       height="307.61603"
       id="rect16" />
    <rect
       x="64.262856"
       y="521.79498"
       width="521.03033"
       height="190.44501"
       id="rect8" />
    <rect
       x="101.77533"
       y="485.93027"
       width="268.09641"
       height="106.80656"
       id="rect7" />
    <rect
       x="412.80923"
       y="132.06975"
       width="33.624355"
       height="75.476074"
       id="rect6" />
    <rect
       x="276.60669"
       y="238.84572"
       width="60.791462"
       height="110.25884"
       id="rect5" />
    <rect
       x="338.91425"
       y="446.87006"
       width="210.96986"
       height="229.91496"
       id="rect1" />
  </defs>
  <g
     inkscape:label="Layer 1"
     inkscape:groupmode="layer"
     id="layer1"
     transform="translate(-62.770763,-77.593033)">
    <path
       id="rect9"
       style="fill:#636363;stroke-width:0.0376601;paint-order:stroke fill markers"
       d="M 62.770763,77.593033 H 122.80431 V 109.2753 H 62.770763 Z"
       inkscape:export-filename="logo.svg"
       inkscape:export-xdpi="96"
       inkscape:export-ydpi="96" />
    <rect
       style="fill:#0000ff;stroke-width:0.0459045"
       id="rect2"
       width="48.21743"
       height="1.1723157"
       x="135.3157"
       y="-0.61922455" />
    <text
       xml:space="preserve"
       transform="scale(0.26458333)"
       id="text5"
       style="font-style:normal;font-variant:normal;font-weight:normal;font-stretch:normal;font-size:64px;font-family:Monospace;-inkscape-font-specification:Monospace;white-space:pre;shape-inside:url(#rect6);display:inline;fill:#0000ff;stroke-width:0.151181"><tspan
         x="412.80859"
         y="264.16992"
         id="tspan2"><tspan
           dx="0 38.53125 38.53125 38.53125 38.53125"
           id="tspan1">| | |</tspan></tspan></text>
    <text
       xml:space="preserve"
       transform="scale(0.26458333)"
       id="text6"
       style="font-style:normal;font-variant:normal;font-weight:normal;font-stretch:normal;font-size:64px;font-family:Monospace;-inkscape-font-specification:Monospace;white-space:pre;shape-inside:url(#rect7);display:inline;fill:#0000ff;stroke-width:0.151181" />
    <path
       style="font-size:64px;font-family:'Noto Looped Thai';-inkscape-font-specification:'Noto Looped Thai';white-space:pre;fill:#8dffae;stroke-width:0.151181;paint-order:stroke fill markers"
       d="m 75.353516,492.3457 v 4.5 h -1.9375 q -7.78125,0 -10.4375,-2.3125 -2.625,-2.3125 -2.625,-9.21875 v -7.46875 q 0,-4.71875 -1.6875,-6.53125 -1.6875,-1.8125 -6.125,-1.8125 h -1.90625 v -4.46875 h 1.90625 q 4.46875,0 6.125,-1.78125 1.6875,-1.8125 1.6875,-6.46875 v -7.5 q 0,-6.90625 2.625,-9.1875 2.65625,-2.3125 10.4375,-2.3125 h 1.9375 v 4.46875 h -2.125 q -4.40625,0 -5.75,1.375 -1.34375,1.375 -1.34375,5.78125 v 7.75 q 0,4.90625 -1.4375,7.125 -1.40625,2.21875 -4.84375,3 3.46875,0.84375 4.875,3.0625 1.40625,2.21875 1.40625,7.09375 v 7.75 q 0,4.40625 1.34375,5.78125 1.34375,1.375 5.75,1.375 z m 29.247894,-9.3935 q 0,-2.368 1.152,-3.328 1.152,-0.96 2.752,-0.96 1.664,0 2.816,0.96 1.216,0.96 1.216,3.328 0,2.304 -1.216,3.328 -1.152,1.024 -2.816,1.024 -1.6,0 -2.752,-1.024 -1.152,-1.024 -1.152,-3.328 z m 17.15198,0 q 0,-2.368 1.152,-3.328 1.152,-0.96 2.752,-0.96 1.664,0 2.816,0.96 1.216,0.96 1.216,3.328 0,2.304 -1.216,3.328 -1.152,1.024 -2.816,1.024 -1.6,0 -2.752,-1.024 -1.152,-1.024 -1.152,-3.328 z m 50.43176,0 q 0,-2.368 1.152,-3.328 1.152,-0.96 2.752,-0.96 1.664,0 2.816,0.96 1.216,0.96 1.216,3.328 0,2.304 -1.216,3.328 -1.152,1.024 -2.816,1.024 -1.6,0 -2.752,-1.024 -1.152,-1.024 -1.152,-3.328 z m 17.15198,0 q 0,-2.368 1.152,-3.328 1.152,-0.96 2.752,-0.96 1.664,0 2.816,0.96 1.216,0.96 1.216,3.328 0,2.304 -1.216,3.328 -1.152,1.024 -2.816,1.024 -1.6,0 -2.752,-1.024 -1.152,-1.024 -1.152,-3.328 z m 37.18387,9.3935 h 2.1875 q 4.375,0 5.6875,-1.34375 1.34375,-1.34375 1.34375,-5.8125 v -7.75 q 0,-4.875 1.40625,-7.09375 1.40625,-2.21875 4.875,-3.0625 -3.46875,-0.78125 -4.875,-3 -1.40625,-2.21875 -1.40625,-7.125 v -7.75 q 0,-4.4375 -1.34375,-5.78125 -1.3125,-1.375 -5.6875,-1.375 h -2.1875 v -4.46875 h 1.96875 q 7.78125,0 10.375,2.3125 2.625,2.28125 2.625,9.1875 v 7.5 q 0,4.65625 1.6875,6.46875 1.6875,1.78125 6.125,1.78125 h 1.9375 v 4.46875 h -1.9375 q -4.4375,0 -6.125,1.8125 -1.6875,1.8125 -1.6875,6.53125 v 7.46875 q 0,6.90625 -2.625,9.21875 -2.59375,2.3125 -10.375,2.3125 H 226.521 Z"
       id="text16"
       transform="matrix(0.26058431,-0.04582745,0.04582745,0.26058431,31.679045,-23.128847)"
       aria-label="{ ..  .. }" />
    <path
       style="font-size:64px;font-family:'Noto Looped Thai';-inkscape-font-specification:'Noto Looped Thai';white-space:pre;fill:#6d6dff;stroke-width:0.151181;paint-order:stroke fill markers"
       d="m 79.15625,371.41797 v 28.41989 35.58011 h -5.3125 l 0,-64 z m 62.25,0 v 64 h -5.3125 v -64 z m 62.25,0 v 64 h -5.3125 v -64 z"
       id="text17"
       transform="matrix(0.25308328,0.07715694,-0.07715694,0.25308328,88.725336,-19.037061)"
       aria-label="|  |  | "
       sodipodi:nodetypes="cccccccccccccccc" />
    <rect
       style="fill:#42e7ff;fill-opacity:1;stroke-width:0.0409131;paint-order:stroke fill markers"
       id="rect18"
       width="2.2780066"
       height="17.368458"
       x="96.296333"
       y="55.086742"
       transform="matrix(0.95949981,0.28170926,-0.26295497,0.96480811,0,0)" />
    <rect
       style="fill:#42e7ff;fill-opacity:1.0;stroke-width:0.0409131;paint-order:stroke fill markers"
       id="rect18-9"
       width="2.2780066"
       height="17.368458"
       x="112.81456"
       y="55.22459"
       transform="matrix(0.95949981,0.28170926,-0.26295497,0.96480811,0,0)" />
    <rect
       style="fill:#42e7ff;fill-opacity:1.0;stroke-width:0.0409131;paint-order:stroke fill markers"
       id="rect18-4"
       width="2.2780066"
       height="17.368458"
       x="129.28513"
       y="55.416248"
       transform="matrix(0.95949981,0.28170926,-0.26295497,0.96480811,0,0)" />
  </g>
</svg>
