<?xml version="1.0" encoding="UTF-8" standalone="no"?>
<!-- Created with Inkscape (http://www.inkscape.org/) -->

<svg
   width="61.610344mm"
   height="40.826908mm"
   viewBox="0 0 61.610343 40.826908"
   version="1.1"
   id="svg1"
   inkscape:version="1.3.1 (9b9bdc1480, 2023-11-25, custom)"
   sodipodi:docname="logo.svg"
   xmlns:inkscape="http://www.inkscape.org/namespaces/inkscape"
   xmlns:sodipodi="http://sodipodi.sourceforge.net/DTD/sodipodi-0.dtd"
   xmlns="http://www.w3.org/2000/svg"
   xmlns:svg="http://www.w3.org/2000/svg">
  <sodipodi:namedview
     id="namedview1"
     pagecolor="#ffffff"
     bordercolor="#000000"
     borderopacity="0.25"
     inkscape:showpageshadow="2"
     inkscape:pageopacity="0.0"
     inkscape:pagecheckerboard="0"
     inkscape:deskcolor="#d1d1d1"
     inkscape:document-units="mm"
     inkscape:zoom="1.4449635"
     inkscape:cx="42.215599"
     inkscape:cy="97.234288"
     inkscape:window-width="1850"
     inkscape:window-height="1011"
     inkscape:window-x="0"
     inkscape:window-y="0"
     inkscape:window-maximized="1"
     inkscape:current-layer="layer1" />
  <defs
     id="defs1">
    <inkscape:path-effect
       effect="fillet_chamfer"
       id="path-effect20"
       is_visible="true"
       lpeversion="1"
       nodesatellites_param="F,0,0,1,0,0,0,1 @ F,0,0,1,0,0,0,1 @ F,0,0,1,0,0,0,1 @ F,0,0,1,0,0,0,1 @ F,0,0,1,0,0,0,1 @ F,0,0,1,0,0,0,1 @ F,0,0,1,0,0,0,1 @ F,0,0,1,0,0,0,1"
       radius="0"
       unit="px"
       method="auto"
       mode="F"
       chamfer_steps="1"
       flexible="false"
       use_knot_distance="true"
       apply_no_radius="true"
       apply_with_radius="true"
       only_selected="false"
       hide_knots="false" />
    <inkscape:path-effect
       effect="fillet_chamfer"
       id="path-effect19"
       is_visible="true"
       lpeversion="1"
       nodesatellites_param="F,0,0,1,0,0,0,1 @ F,0,0,1,0,0,0,1 @ F,0,0,1,0,0,0,1 @ F,0,0,1,0,0,0,1"
       radius="0"
       unit="px"
       method="auto"
       mode="F"
       chamfer_steps="1"
       flexible="false"
       use_knot_distance="true"
       apply_no_radius="true"
       apply_with_radius="true"
       only_selected="false"
       hide_knots="false" />
    <rect
       x="65.719467"
       y="362.32492"
       width="454.37805"
       height="214.9015"
       id="rect17" />
    <rect
       x="42.635456"
       y="428.40756"
       width="538.70081"
       height="307.61603"
       id="rect16" />
    <rect
       x="64.262856"
       y="521.79498"
       width="521.03033"
       height="190.44501"
       id="rect8" />
    <rect
       x="101.77533"
       y="485.93027"
       width="268.09641"
       height="106.80656"
       id="rect7" />
    <rect
       x="412.80923"
       y="132.06975"
       width="33.624355"
       height="75.476074"
       id="rect6" />
    <rect
       x="276.60669"
       y="238.84572"
       width="60.791462"
       height="110.25884"
       id="rect5" />
    <rect
       x="338.91425"
       y="446.87006"
       width="210.96986"
       height="229.91496"
       id="rect1" />
    <inkscape:path-effect
       effect="fillet_chamfer"
       id="path-effect20-0"
       is_visible="true"
       lpeversion="1"
       nodesatellites_param="F,0,0,1,0,0,0,1 @ F,0,0,1,0,0,0,1 @ F,0,0,1,0,0,0,1 @ F,0,0,1,0,0,0,1 @ F,0,0,1,0,0,0,1 @ F,0,0,1,0,0,0,1 @ F,0,0,1,0,0,0,1 @ F,0,0,1,0,0,0,1"
       radius="0"
       unit="px"
       method="auto"
       mode="F"
       chamfer_steps="1"
       flexible="false"
       use_knot_distance="true"
       apply_no_radius="true"
       apply_with_radius="true"
       only_selected="false"
       hide_knots="false" />
    <inkscape:path-effect
       effect="fillet_chamfer"
       id="path-effect20-7"
       is_visible="true"
       lpeversion="1"
       nodesatellites_param="F,0,0,1,0,0,0,1 @ F,0,0,1,0,0,0,1 @ F,0,0,1,0,0,0,1 @ F,0,0,1,0,0,0,1 @ F,0,0,1,0,0,0,1 @ F,0,0,1,0,0,0,1 @ F,0,0,1,0,0,0,1 @ F,0,0,1,0,0,0,1"
       radius="0"
       unit="px"
       method="auto"
       mode="F"
       chamfer_steps="1"
       flexible="false"
       use_knot_distance="true"
       apply_no_radius="true"
       apply_with_radius="true"
       only_selected="false"
       hide_knots="false" />
  </defs>
  <g
     inkscape:label="Layer 1"
     inkscape:groupmode="layer"
     id="layer1"
     transform="translate(-61.804086,-72.983522)">
    <path
       id="rect9"
       style="fill:#404040;fill-opacity:1;stroke-width:0.0433088;paint-order:stroke fill markers"
       d="M 61.804086,72.983522 H 123.41443 V 113.81043 H 61.804086 Z"
       inkscape:export-filename="logo.svg"
       inkscape:export-xdpi="96"
       inkscape:export-ydpi="96" />
    <rect
       style="fill:#0000ff;stroke-width:0.0459045"
       id="rect2"
       width="48.21743"
       height="1.1723157"
       x="135.3157"
       y="-0.61922455" />
    <text
       xml:space="preserve"
       transform="scale(0.26458333)"
       id="text5"
       style="font-style:normal;font-variant:normal;font-weight:normal;font-stretch:normal;font-size:64px;font-family:Monospace;-inkscape-font-specification:Monospace;white-space:pre;shape-inside:url(#rect6);display:inline;fill:#0000ff;stroke-width:0.151181"><tspan
         x="412.80859"
         y="264.16992"
         id="tspan2"><tspan
           dx="0 38.53125 38.53125 38.53125 38.53125"
           id="tspan1">| | |</tspan></tspan></text>
    <text
       xml:space="preserve"
       transform="scale(0.26458333)"
       id="text6"
       style="font-style:normal;font-variant:normal;font-weight:normal;font-stretch:normal;font-size:64px;font-family:Monospace;-inkscape-font-specification:Monospace;white-space:pre;shape-inside:url(#rect7);display:inline;fill:#0000ff;stroke-width:0.151181" />
    <path
       style="font-size:64px;font-family:'Noto Looped Thai';-inkscape-font-specification:'Noto Looped Thai';white-space:pre;fill:#8dffae;stroke-width:0.151181;paint-order:stroke fill markers"
       d="m 75.353516,492.3457 v 4.5 h -1.9375 q -7.78125,0 -10.4375,-2.3125 -2.625,-2.3125 -2.625,-9.21875 v -7.46875 q 0,-4.71875 -1.6875,-6.53125 -1.6875,-1.8125 -6.125,-1.8125 h -1.90625 v -4.46875 h 1.90625 q 4.46875,0 6.125,-1.78125 1.6875,-1.8125 1.6875,-6.46875 v -7.5 q 0,-6.90625 2.625,-9.1875 2.65625,-2.3125 10.4375,-2.3125 h 1.9375 v 4.46875 h -2.125 q -4.40625,0 -5.75,1.375 -1.34375,1.375 -1.34375,5.78125 v 7.75 q 0,4.90625 -1.4375,7.125 -1.40625,2.21875 -4.84375,3 3.46875,0.84375 4.875,3.0625 1.40625,2.21875 1.40625,7.09375 v 7.75 q 0,4.40625 1.34375,5.78125 1.34375,1.375 5.75,1.375 z m 29.247894,-9.3935 q 0,-2.368 1.152,-3.328 1.152,-0.96 2.752,-0.96 1.664,0 2.816,0.96 1.216,0.96 1.216,3.328 0,2.304 -1.216,3.328 -1.152,1.024 -2.816,1.024 -1.6,0 -2.752,-1.024 -1.152,-1.024 -1.152,-3.328 z m 17.15198,0 q 0,-2.368 1.152,-3.328 1.152,-0.96 2.752,-0.96 1.664,0 2.816,0.96 1.216,0.96 1.216,3.328 0,2.304 -1.216,3.328 -1.152,1.024 -2.816,1.024 -1.6,0 -2.752,-1.024 -1.152,-1.024 -1.152,-3.328 z m 50.43176,0 q 0,-2.368 1.152,-3.328 1.152,-0.96 2.752,-0.96 1.664,0 2.816,0.96 1.216,0.96 1.216,3.328 0,2.304 -1.216,3.328 -1.152,1.024 -2.816,1.024 -1.6,0 -2.752,-1.024 -1.152,-1.024 -1.152,-3.328 z m 17.15198,0 q 0,-2.368 1.152,-3.328 1.152,-0.96 2.752,-0.96 1.664,0 2.816,0.96 1.216,0.96 1.216,3.328 0,2.304 -1.216,3.328 -1.152,1.024 -2.816,1.024 -1.6,0 -2.752,-1.024 -1.152,-1.024 -1.152,-3.328 z m 37.18387,9.3935 h 2.1875 q 4.375,0 5.6875,-1.34375 1.34375,-1.34375 1.34375,-5.8125 v -7.75 q 0,-4.875 1.40625,-7.09375 1.40625,-2.21875 4.875,-3.0625 -3.46875,-0.78125 -4.875,-3 -1.40625,-2.21875 -1.40625,-7.125 v -7.75 q 0,-4.4375 -1.34375,-5.78125 -1.3125,-1.375 -5.6875,-1.375 h -2.1875 v -4.46875 h 1.96875 q 7.78125,0 10.375,2.3125 2.625,2.28125 2.625,9.1875 v 7.5 q 0,4.65625 1.6875,6.46875 1.6875,1.78125 6.125,1.78125 h 1.9375 v 4.46875 h -1.9375 q -4.4375,0 -6.125,1.8125 -1.6875,1.8125 -1.6875,6.53125 v 7.46875 q 0,6.90625 -2.625,9.21875 -2.59375,2.3125 -10.375,2.3125 H 226.521 Z"
       id="text16"
       transform="matrix(0.26058431,-0.04582745,0.04582745,0.26058431,31.679045,-23.128847)"
       aria-label="{ ..  .. }" />
    <path
       style="fill:#42d7ff;fill-opacity:1;stroke-width:0.04;paint-order:stroke fill markers"
       id="rect19"
       width="2.6239414"
       height="18.278362"
       x="82.254517"
       y="80.851761"
       sodipodi:type="rect"
       ry="0.48262358"
       transform="matrix(0.7240628,0.19435311,-0.25102887,0.93520844,38.834133,-11.519678)"
       d="m 82.73714,80.851761 h 1.658694 c 0.267374,0 0.482624,0.21525 0.482624,0.482623 V 98.6475 c 0,0.267373 -0.21525,0.482623 -0.482624,0.482623 H 82.73714 c -0.267373,0 -0.482623,-0.21525 -0.482623,-0.482623 V 81.334384 c 0,-0.267373 0.21525,-0.482623 0.482623,-0.482623 z"
       inkscape:path-effect="#path-effect20" />
    <path
       style="fill:#42d7ff;fill-opacity:1;stroke-width:0.04;paint-order:stroke fill markers"
       id="rect19-8"
       width="2.6239414"
       height="18.278362"
       x="82.254517"
       y="80.851761"
       sodipodi:type="rect"
       ry="0.48262358"
       transform="matrix(0.7240628,0.19435311,-0.25102887,0.93520844,54.626347,-6.855621)"
       d="m 82.73714,80.851761 h 1.658694 c 0.267374,0 0.482624,0.21525 0.482624,0.482623 V 98.6475 c 0,0.267373 -0.21525,0.482623 -0.482624,0.482623 H 82.73714 c -0.267373,0 -0.482623,-0.21525 -0.482623,-0.482623 V 81.334384 c 0,-0.267373 0.21525,-0.482623 0.482623,-0.482623 z"
       inkscape:path-effect="#path-effect20-0" />
    <path
       style="fill:#42d7ff;fill-opacity:1;stroke-width:0.04;paint-order:stroke fill markers"
       id="rect19-7"
       width="2.6239414"
       height="18.278362"
       x="82.254517"
       y="80.851761"
       sodipodi:type="rect"
       ry="0.48262358"
       transform="matrix(0.7240628,0.19435311,-0.25102887,0.93520844,70.378554,-2.142621)"
       d="m 82.73714,80.851761 h 1.658694 c 0.267374,0 0.482624,0.21525 0.482624,0.482623 V 98.6475 c 0,0.267373 -0.21525,0.482623 -0.482624,0.482623 H 82.73714 c -0.267373,0 -0.482623,-0.21525 -0.482623,-0.482623 V 81.334384 c 0,-0.267373 0.21525,-0.482623 0.482623,-0.482623 z"
       inkscape:path-effect="#path-effect20-7" />
  </g>
</svg>
